<svg id="nsa-national-security-agency" xmlns="http://www.w3.org/2000/svg" width="186" height="186" viewBox="0 0 186 186">
  <path id="Path_21" data-name="Path 21" d="M93,186A93,93,0,1,0,0,93,93,93,0,0,0,93,186Z" transform="translate(0 0)" fill="#e0af35"/>
  <path id="Path_22" data-name="Path 22" d="M101.044,191.292A90.476,90.476,0,1,0,10.57,100.818a90.475,90.475,0,0,0,90.474,90.474Z" transform="translate(-8.043 -7.868)" fill="#fff"/>
  <path id="Path_23" data-name="Path 23" d="M156.241,229.163a73.134,73.134,0,1,0-73.134-73.135,73.138,73.138,0,0,0,73.134,73.135Z" transform="translate(-63.24 -63.079)" fill="#e0af35"/>
  <path id="Path_24" data-name="Path 24" d="M161.415,232.707A71.508,71.508,0,1,0,89.906,161.2,71.509,71.509,0,0,0,161.415,232.707Z" transform="translate(-68.414 -68.25)" fill="#124471"/>
  <path id="Path_25" data-name="Path 25" d="M358.895,395.083l-6.149-.056,6.149-.592" transform="translate(-261.201 -292.324)" fill="#fff" stroke="#000" stroke-linejoin="round" stroke-width="0.074"/>
  <path id="Path_26" data-name="Path 26" d="M307.171,439.1l2.779,1.489,2.876-1.489-2.876-31.042Zm2.779-31.738,9.882,30.162,2.195.871,1.262-1.721Zm9.915,30.3-1.436,1.847-2.108-.888-6.371-31.058Zm-3.547,1.034-1.519,1.2-1.994-.769-2.854-31.165Zm-6.368-31.332-9.884,30.162-2.195.871-1.26-1.721Zm-9.921,30.3,1.438,1.847,2.113-.888,6.37-31.058Zm3.552,1.034,1.515,1.2,2-.769,2.858-31.165Z" transform="translate(-218.691 -299.896)" fill="#fff" stroke="#fff" stroke-linejoin="round" stroke-width="0.223"/>
  <path id="Path_27" data-name="Path 27" d="M346.441,441.316l-2.876-31.042-2.78,31.042,2.78,1.489Z" transform="translate(-252.281 -302.087)" fill="#fff" stroke="#000" stroke-linejoin="round" stroke-width="0.074"/>
  <path id="Path_28" data-name="Path 28" d="M352.411,430.236V399.071m6.051-3.618-6.051.269" transform="translate(-260.871 -291.013)" fill="none" stroke="#000" stroke-linejoin="round" stroke-width="0.074"/>
  <path id="Path_29" data-name="Path 29" d="M358.413,397.452l-6-.542,5.9-.093" transform="translate(-260.874 -294.002)" fill="#fff" stroke="#000" stroke-linejoin="round" stroke-width="0.074"/>
  <path id="Path_30" data-name="Path 30" d="M358.262,397.417l-5.85-.209" transform="translate(-260.88 -294.312)" fill="none" stroke="#000" stroke-linejoin="round" stroke-width="0.074"/>
  <path id="Path_31" data-name="Path 31" d="M358.42,398.946l-6.008-1.025,6,.371" transform="translate(-260.873 -294.802)" fill="#fff" stroke="#000" stroke-linejoin="round" stroke-width="0.074"/>
  <path id="Path_32" data-name="Path 32" d="M358.406,398.612l-5.994-.691" transform="translate(-260.874 -294.817)" fill="none" stroke="#000" stroke-linejoin="round" stroke-width="0.074"/>
  <path id="Path_33" data-name="Path 33" d="M358.306,400.152l-5.894-1.5,6,.834" transform="translate(-260.874 -295.323)" fill="#fff" stroke="#000" stroke-linejoin="round" stroke-width="0.074"/>
  <path id="Path_34" data-name="Path 34" d="M358.488,399.87l-6.076-1.215" transform="translate(-260.87 -295.337)" fill="none" stroke="#000" stroke-linejoin="round" stroke-width="0.074"/>
  <path id="Path_35" data-name="Path 35" d="M358.3,401.435l-5.884-2.041,5.987,1.341" transform="translate(-260.874 -295.845)" fill="#fff" stroke="#000" stroke-linejoin="round" stroke-width="0.074"/>
  <path id="Path_36" data-name="Path 36" d="M358.608,401.206l-6.2-1.812" transform="translate(-260.865 -295.856)" fill="none" stroke="#000" stroke-linejoin="round" stroke-width="0.074"/>
  <path id="Path_37" data-name="Path 37" d="M358.51,402.973l-6.1-2.749,6.131,1.991" transform="translate(-260.868 -296.426)" fill="#fff" stroke="#000" stroke-linejoin="round" stroke-width="0.074"/>
  <path id="Path_38" data-name="Path 38" d="M358.551,402.544l-6.139-2.32" transform="translate(-260.867 -296.446)" fill="none" stroke="#000" stroke-linejoin="round" stroke-width="0.074"/>
  <path id="Path_39" data-name="Path 39" d="M358.818,404.689l-6.406-3.755,6.094,2.584" transform="translate(-260.856 -296.903)" fill="#fff" stroke="#000" stroke-linejoin="round" stroke-width="0.074"/>
  <path id="Path_40" data-name="Path 40" d="M358.855,404.209l-6.443-3.275" transform="translate(-260.854 -296.926)" fill="none" stroke="#000" stroke-linejoin="round" stroke-width="0.074"/>
  <path id="Path_41" data-name="Path 41" d="M359.084,406.664l-6.672-5,6.349,3.54" transform="translate(-260.844 -297.384)" fill="#fff" stroke="#000" stroke-linejoin="round" stroke-width="0.074"/>
  <path id="Path_42" data-name="Path 42" d="M359.106,406.052l-6.694-4.386" transform="translate(-260.843 -297.414)" fill="none" stroke="#000" stroke-linejoin="round" stroke-width="0.074"/>
  <path id="Path_43" data-name="Path 43" d="M359.24,409l-6.828-6.4,6.753,4.8" transform="translate(-260.837 -298.003)" fill="#fff" stroke="#000" stroke-linejoin="round" stroke-width="0.074"/>
  <path id="Path_44" data-name="Path 44" d="M359.063,408.049l-6.651-5.452" transform="translate(-260.845 -298.051)" fill="none" stroke="#000" stroke-linejoin="round" stroke-width="0.074"/>
  <path id="Path_45" data-name="Path 45" d="M359.433,411.987l-7.021-8.343,6.813,6.081" transform="translate(-260.829 -298.678)" fill="#fff" stroke="#000" stroke-linejoin="round" stroke-width="0.074"/>
  <path id="Path_46" data-name="Path 46" d="M359.343,410.842l-6.931-7.2" transform="translate(-260.832 -298.737)" fill="none" stroke="#000" stroke-linejoin="round" stroke-width="0.074"/>
  <path id="Path_47" data-name="Path 47" d="M359.633,415.84l-7.221-11.164,7.069,8.1" transform="translate(-260.819 -299.293)" fill="#fff" stroke="#000" stroke-linejoin="round" stroke-width="0.074"/>
  <path id="Path_48" data-name="Path 48" d="M359.153,413.52l-6.741-8.845" transform="translate(-260.841 -299.415)" fill="none" stroke="#000" stroke-linejoin="round" stroke-width="0.074"/>
  <path id="Path_49" data-name="Path 49" d="M360.671,424.683l-8.259-18.461,7.259,10.8" transform="translate(-260.773 -300.023)" fill="#fff" stroke="#000" stroke-linejoin="round" stroke-width="0.074"/>
  <path id="Path_50" data-name="Path 50" d="M359.917,419.776l-7.505-13.554" transform="translate(-260.807 -300.305)" fill="none" stroke="#000" stroke-linejoin="round" stroke-width="0.074"/>
  <path id="Path_51" data-name="Path 51" d="M364.489,438.4l1.262-1.721-13.338-29.311,9.881,30.162Z" transform="translate(-260.536 -300.053)" fill="#fff" stroke="#000" stroke-linejoin="round" stroke-width="0.074"/>
  <path id="Path_52" data-name="Path 52" d="M352.412,407.367l11.765,30.1" transform="translate(-260.611 -300.119)" fill="none" stroke="#000" stroke-linejoin="round" stroke-width="0.074"/>
  <path id="Path_53" data-name="Path 53" d="M358.783,439.261,352.412,408.2l9.915,30.1-1.435,1.848Z" transform="translate(-260.697 -300.604)" fill="#fff" stroke="#000" stroke-linejoin="round" stroke-width="0.074"/>
  <path id="Path_54" data-name="Path 54" d="M360.608,439.273l-8.2-31.07" transform="translate(-260.776 -300.666)" fill="none" stroke="#000" stroke-linejoin="round" stroke-width="0.074"/>
  <path id="Path_55" data-name="Path 55" d="M355.266,441.02l-2.854-31.166,6.368,30.738-1.52,1.2Z" transform="translate(-260.857 -301.821)" fill="#fff" stroke="#000" stroke-linejoin="round" stroke-width="0.074"/>
  <path id="Path_56" data-name="Path 56" d="M357.071,441.149l-4.659-31.3" transform="translate(-260.932 -301.866)" fill="none" stroke="#000" stroke-linejoin="round" stroke-width="0.074"/>
  <path id="Path_57" data-name="Path 57" d="M326.69,394.748l6.149-.056-6.149-.592" transform="translate(-241.827 -291.989)" fill="#fff" stroke="#000" stroke-linejoin="round" stroke-width="0.074"/>
  <path id="Path_58" data-name="Path 58" d="M327.095,395.453l6.052.268" transform="translate(-242.13 -293.009)" fill="none" stroke="#000" stroke-linejoin="round" stroke-width="0.074"/>
  <path id="Path_59" data-name="Path 59" d="M327.3,397.452l6-.542-5.9-.093" transform="translate(-242.285 -294.002)" fill="#fff" stroke="#000" stroke-linejoin="round" stroke-width="0.074"/>
  <path id="Path_60" data-name="Path 60" d="M327.931,397.417l5.852-.209" transform="translate(-242.757 -294.312)" fill="none" stroke="#000" stroke-linejoin="round" stroke-width="0.074"/>
  <path id="Path_61" data-name="Path 61" d="M327.267,398.946l6.011-1.025-6,.371" transform="translate(-242.259 -294.802)" fill="#fff" stroke="#000" stroke-linejoin="round" stroke-width="0.074"/>
  <path id="Path_62" data-name="Path 62" d="M327.313,398.612l6-.691" transform="translate(-242.294 -294.817)" fill="none" stroke="#000" stroke-linejoin="round" stroke-width="0.074"/>
  <path id="Path_63" data-name="Path 63" d="M327.4,400.152l5.9-1.5-6,.834" transform="translate(-242.285 -295.323)" fill="#fff" stroke="#000" stroke-linejoin="round" stroke-width="0.074"/>
  <path id="Path_64" data-name="Path 64" d="M326.977,399.87l6.08-1.215" transform="translate(-242.042 -295.337)" fill="none" stroke="#000" stroke-linejoin="round" stroke-width="0.074"/>
  <path id="Path_65" data-name="Path 65" d="M327.449,401.435l5.886-2.041-5.993,1.341" transform="translate(-242.316 -295.845)" fill="#fff" stroke="#000" stroke-linejoin="round" stroke-width="0.074"/>
  <path id="Path_66" data-name="Path 66" d="M326.486,401.206l6.2-1.812" transform="translate(-241.674 -295.856)" fill="none" stroke="#000" stroke-linejoin="round" stroke-width="0.074"/>
  <path id="Path_67" data-name="Path 67" d="M326.782,402.973l6.1-2.749-6.135,1.991" transform="translate(-241.872 -296.426)" fill="#fff" stroke="#000" stroke-linejoin="round" stroke-width="0.074"/>
  <path id="Path_68" data-name="Path 68" d="M326.718,402.544l6.142-2.32" transform="translate(-241.848 -296.446)" fill="none" stroke="#000" stroke-linejoin="round" stroke-width="0.074"/>
  <path id="Path_69" data-name="Path 69" d="M325.6,404.689l6.41-3.755-6.1,2.584" transform="translate(-241.008 -296.903)" fill="#fff" stroke="#000" stroke-linejoin="round" stroke-width="0.074"/>
  <path id="Path_70" data-name="Path 70" d="M325.449,404.209l6.445-3.275" transform="translate(-240.896 -296.926)" fill="none" stroke="#000" stroke-linejoin="round" stroke-width="0.074"/>
  <path id="Path_71" data-name="Path 71" d="M324.484,406.664l6.676-5-6.352,3.54" transform="translate(-240.172 -297.384)" fill="#fff" stroke="#000" stroke-linejoin="round" stroke-width="0.074"/>
  <path id="Path_72" data-name="Path 72" d="M324.395,406.052l6.7-4.386" transform="translate(-240.105 -297.414)" fill="none" stroke="#000" stroke-linejoin="round" stroke-width="0.074"/>
  <path id="Path_73" data-name="Path 73" d="M323.815,409l6.836-6.4-6.756,4.8" transform="translate(-239.671 -298.003)" fill="#fff" stroke="#000" stroke-linejoin="round" stroke-width="0.074"/>
  <path id="Path_74" data-name="Path 74" d="M324.579,408.049l6.653-5.452" transform="translate(-240.244 -298.051)" fill="none" stroke="#000" stroke-linejoin="round" stroke-width="0.074"/>
  <path id="Path_75" data-name="Path 75" d="M323.025,411.987l7.025-8.343-6.815,6.081" transform="translate(-239.078 -298.678)" fill="#fff" stroke="#000" stroke-linejoin="round" stroke-width="0.074"/>
  <path id="Path_76" data-name="Path 76" d="M323.4,410.842l6.934-7.2" transform="translate(-239.362 -298.737)" fill="none" stroke="#000" stroke-linejoin="round" stroke-width="0.074"/>
  <path id="Path_77" data-name="Path 77" d="M322.177,415.84l7.228-11.164-7.07,8.1" transform="translate(-238.442 -299.293)" fill="#fff" stroke="#000" stroke-linejoin="round" stroke-width="0.074"/>
  <path id="Path_78" data-name="Path 78" d="M324.194,413.52l6.745-8.845" transform="translate(-239.955 -299.415)" fill="none" stroke="#000" stroke-linejoin="round" stroke-width="0.074"/>
  <path id="Path_79" data-name="Path 79" d="M317.846,424.683l8.263-18.461-7.263,10.8" transform="translate(-235.195 -300.023)" fill="#fff" stroke="#000" stroke-linejoin="round" stroke-width="0.074"/>
  <path id="Path_80" data-name="Path 80" d="M321,419.776l7.51-13.554" transform="translate(-237.557 -300.305)" fill="none" stroke="#000" stroke-linejoin="round" stroke-width="0.074"/>
  <path id="Path_81" data-name="Path 81" d="M297.871,438.4l-1.26-1.721,13.339-29.311-9.884,30.162Z" transform="translate(-219.282 -300.053)" fill="#fff" stroke="#000" stroke-linejoin="round" stroke-width="0.074"/>
  <path id="Path_82" data-name="Path 82" d="M314.958,407.367l-11.766,30.1" transform="translate(-224.212 -300.119)" fill="none" stroke="#000" stroke-linejoin="round" stroke-width="0.074"/>
  <path id="Path_83" data-name="Path 83" d="M314.463,439.261l6.37-31.058-9.921,30.1,1.438,1.848Z" transform="translate(-229.997 -300.604)" fill="#fff" stroke="#000" stroke-linejoin="round" stroke-width="0.074"/>
  <path id="Path_84" data-name="Path 84" d="M318.11,439.273l8.2-31.07" transform="translate(-235.393 -300.666)" fill="none" stroke="#000" stroke-linejoin="round" stroke-width="0.074"/>
  <path id="Path_85" data-name="Path 85" d="M329.282,441.02l2.858-31.166-6.368,30.738,1.515,1.2Z" transform="translate(-241.137 -301.821)" fill="#fff" stroke="#000" stroke-linejoin="round" stroke-width="0.074"/>
  <path id="Path_86" data-name="Path 86" d="M332.909,441.149l4.662-31.3" transform="translate(-246.492 -301.866)" fill="none" stroke="#000" stroke-linejoin="round" stroke-width="0.074"/>
  <path id="Path_87" data-name="Path 87" d="M274.051,485.325a4.571,4.571,0,0,1-2.356-1.093,14.738,14.738,0,0,1-1.59-2.876c-1.334-3-3.2-5.82-6.419-5.82s-6.892,3.713-8.225,6.715a2.22,2.22,0,0,1-.5.643,1.422,1.422,0,0,1-.794.151h-66.1a2.43,2.43,0,0,0-2.426,2.28v0a2.433,2.433,0,0,0,2.426,2.285h66.1a1.412,1.412,0,0,1,.794.145,2.206,2.206,0,0,1,.5.644c1.333,3,5.012,6.717,8.225,6.717s5.084-2.82,6.419-5.822a14.73,14.73,0,0,1,1.59-2.878A4.588,4.588,0,0,1,274.051,485.325Z" transform="translate(-133.613 -351.137)" fill="#b2b2b2" stroke="#000" stroke-width="0.074"/>
  <path id="Path_88" data-name="Path 88" d="M190.912,485.227a1.782,1.782,0,0,1,1.289-.374h66.425a2.43,2.43,0,0,0,.769-.2,1.364,1.364,0,0,0,.371-.446c1.163-2.652,4.991-6.62,7.934-6.62s4.763,2.676,5.928,5.33c0,0,.358.911.791,1.8m-14.979,3.754.623.868c1.167,2.655,4.694,6.841,7.637,6.841s4.763-2.674,5.928-5.326a21.147,21.147,0,0,1,1.387-2.877,2.447,2.447,0,0,1,1.439-1.089h.522a8.6,8.6,0,0,0-1.489.7" transform="translate(-137.627 -352.722)" fill="none" stroke="#000" stroke-linecap="round" stroke-width="0.074"/>
  <path id="Path_89" data-name="Path 89" d="M495.228,495.487a1.7,1.7,0,0,0-.891.844c-.8,1.881-2.133,2.227-2.878,3.123a27.625,27.625,0,0,1-1.933,2.479,3.415,3.415,0,0,1-2.332.594s1.391-.644,1.838-.891a2.862,2.862,0,0,0,1.187-1.64,13.528,13.528,0,0,0,0-1.482s2.428-.2,2.878-.8a9.623,9.623,0,0,0,.891-2.23h1.24m-14.926,0h-.944s1.242-1.936,1.883-2.679,1.49-1.936,1.838-2.428a16.463,16.463,0,0,0,.842-1.489l.693.794-.745,2.826-2.378.744-1.19,2.233" transform="translate(-354.217 -361.412)"/>
  <path id="Path_90" data-name="Path 90" d="M486.2,491.277a.664.664,0,0,1-.025-.247,3.264,3.264,0,1,1,6.519-.337,3.364,3.364,0,0,1,0,.55,3.138,3.138,0,0,1,.531-.067,3.264,3.264,0,0,1,.332,6.519,4.311,4.311,0,0,1-.639-.024,4.655,4.655,0,0,1,.092.6,3.266,3.266,0,0,1-6.532,0,3.091,3.091,0,0,1,.044-.533,3.8,3.8,0,0,1-.547.026,3.265,3.265,0,0,1,0-6.529C486.16,491.233,486.017,491.246,486.2,491.277Z" transform="translate(-356.822 -360.434)" fill="#b2b2b2" stroke="#000" stroke-width="0.074"/>
  <path id="Path_91" data-name="Path 91" d="M493.753,498.529a2.671,2.671,0,0,0,1.465.342,2.731,2.731,0,1,0-1.7-4.966,2.676,2.676,0,0,0,.337-1.473,2.732,2.732,0,0,0-5.456.276,2.89,2.89,0,0,0,.215.936,2.7,2.7,0,0,0-.946-.168,2.732,2.732,0,1,0,0,5.463,2.613,2.613,0,0,0,1.453-.414,2.792,2.792,0,0,0-.416,1.451,2.733,2.733,0,1,0,5.05-1.448Z" transform="translate(-358.538 -362.166)" fill="#124471" stroke="#000" stroke-width="0.074"/>
  <path id="Path_92" data-name="Path 92" d="M190.912,523.427a1.789,1.789,0,0,0,1.289.375h66.425a2.471,2.471,0,0,1,.769.2,1.37,1.37,0,0,1,.371.446" transform="translate(-138.907 -387.784)" fill="none" stroke="#000" stroke-linecap="round" stroke-width="0.074"/>
  <path id="Path_93" data-name="Path 93" d="M258.047,520.22s-.543-1.165-1.091-1.39a4.865,4.865,0,0,0-1.636-.15H189.243c-.422,0-1.34-.545-1.34-1.265a2.028,2.028,0,0,0,1.34.868H255.32a4.056,4.056,0,0,1,1.761.2,6.358,6.358,0,0,1,.966,1.738" transform="translate(-136.638 -383.22)"/>
  <path id="Path_94" data-name="Path 94" d="M461.388,504.659a.893.893,0,0,0,.891-.9v-6.817a.891.891,0,1,0-1.782,0v6.817A.893.893,0,0,0,461.388,504.659Z" transform="translate(-341.12 -367.041)" fill="#b2b2b2" stroke="#000" stroke-width="0.074"/>
  <path id="Path_95" data-name="Path 95" d="M460.5,504.827a.891.891,0,1,0,1.782,0m-1.782-6.121a.891.891,0,1,1,1.782,0" transform="translate(-341.12 -368.384)" fill="none" stroke="#000" stroke-width="0.074"/>
  <path id="Path_96" data-name="Path 96" d="M462.275,524.374a.891.891,0,1,1-1.782,0v.172a.891.891,0,1,0,1.782,0Z" transform="translate(-341.117 -388.483)" stroke="#000" stroke-width="0.074"/>
  <path id="Path_97" data-name="Path 97" d="M224.116,504.593c.079-.164.152-.329.224-.5" transform="translate(-166.058 -373.491)" fill="#94693c"/>
  <path id="Path_98" data-name="Path 98" d="M167.679,240.993c1.654.471,3.4-.6,4.784-1.51l.218.276c-.608,2.181-.436,4.683-1.349,6.744l1.13.121.13-.4a15.6,15.6,0,0,0,2.616-1.683,25.07,25.07,0,0,0,2.475-1.055l.956-1.9c2.478-1.668,3.783-4.046,5.089-6.307a55.043,55.043,0,0,0,4.391-19.046s.7-.273.828-.075c.176.061,1.875-.148,2.206-.693l1.361.295,1.785-.081a2.424,2.424,0,0,0,1.976-1.888l1.045-.094,2.329-1.846c-.6-.682-.956-1.128-1.6-1.982,0,0-3.6-4.206-4.664-12.239-.588-4.438.614-12.2.614-12.2h1.561c-1.871-.792-4.09-1.765-5.351-3.473-.914-4.4,3.045-8.289,1.045-12.574-3.526-5.236-11.267-5.593-16.919-3.691-9.529,5.119-9.965,15.354-11.661,24.28l-1.563,20.275c-.393,4.96.3,9.957-.22,14.835a7.467,7.467,0,0,0,3.523-2.182c.784,3.333.349,7.1,0,10.472a5.747,5.747,0,0,0,4.306-2.575l.217.2a39.739,39.739,0,0,1-1.478,9.522Zm95.826-19.4c-4-11.386-2.09-24.279-4.612-36.183l.218-.869c-.784-4.407-3.131-8.253-4.7-12.379-1.826-3.452-3.608-7.46-7.83-9.523-2.784-2.18-7.092-1.112-10.307-.553-3.177,1.229-7.745,3.371-7.654,7.218-.132,3.135,1.738,5.515,2.086,8.49-.086,3.608-4.806,6.208-7.5,7.636h4.937a33.718,33.718,0,0,1,.83,8.836c-.167,4.706-.978,9.99-4.552,15.2a42.959,42.959,0,0,1-4.173,4.793L225.4,215.9l.432-1.266c.123.2.3.2.516.3a5.682,5.682,0,0,0,1.826.164l1.1-.091a2.04,2.04,0,0,0,1.436-1.347l.654.2.3.2c.61.08,1.611.319,2-.2l.826,1.23.523,2.1c2.781,6.588,3.043,14.562,10.219,19.042l.611.277,1.26.479,3.354,4.479a11.615,11.615,0,0,0,3.346,2.381c.489.066,1.2,1.371,1.56,1l.53-1.272-.959-4.563a21.141,21.141,0,0,0,2.258.44l1.094-.834a57.6,57.6,0,0,1-2-8.77v-.615c2.6,1.529,3.653.338,3.653.338a51.972,51.972,0,0,1-1.564-10.2l.464-.125a7.226,7.226,0,0,0,1.234,1.871,2.456,2.456,0,0,0,2.087.755l1.348-.277Z" transform="translate(-119.812 -116.356)" fill="#94693c" stroke="#000" stroke-width="0.074"/>
  <path id="Path_99" data-name="Path 99" d="M329.583,191.358a29.628,29.628,0,0,0-.853-3.193c.322-1.39-.991-2.7-.475-3.965a22.78,22.78,0,0,1-1.15-7.34,26.985,26.985,0,0,0-1.072-4.762c-.753-1.7-3-2.287-4.363-2.579a27.659,27.659,0,0,0-3.531-.4c-.633-.056-1.717.341-1.629.819a4.163,4.163,0,0,1,.473,3.312l-1.889.483c1.577.4,3.152,1.6,2.994,2.422a1.423,1.423,0,0,1-1.578.7,29.3,29.3,0,0,0-2.464-2.021c-.285-.078-1.079-.663-.956-.508.063.074.794,1.011,1.338,1.55a3.794,3.794,0,0,1,.78,1.275,2.176,2.176,0,0,1,.667,1.965l-.672,1.9-.477,1.827c0,.953-1.072,1.822-.951,2.854a3.907,3.907,0,0,0-.674,2.383l-1.348,3.272h17.83Z" transform="translate(-230.279 -124.809)" fill="#fff" stroke="#000" stroke-linecap="square" stroke-miterlimit="2" stroke-width="0.074"/>
  <path id="Path_100" data-name="Path 100" d="M310.929,171.62a4.159,4.159,0,0,1,.473,3.312l-1.889.483c1.577.4,3.152,1.6,2.994,2.422a1.423,1.423,0,0,1-1.578.7,29.3,29.3,0,0,0-2.464-2.021c-.285-.078-1.079-.663-.956-.507.063.074.794,1.011,1.338,1.55a3.794,3.794,0,0,1,.78,1.275,18.844,18.844,0,0,0-4.476-2.021l-.46.546c-.181-1.9-.679-3.688.4-5.26C306.17,170.946,308.982,171.346,310.929,171.62Z" transform="translate(-225.265 -126.79)" fill="#e0af35" stroke="#e0af35" stroke-linecap="square" stroke-miterlimit="2" stroke-width="0.074"/>
  <path id="Path_101" data-name="Path 101" d="M309.625,178.834a45.253,45.253,0,0,0-4.476-2.021l-.46.546c-.181-1.9-.679-3.689.4-5.26,1.082-1.154,3.894-.755,5.841-.48" transform="translate(-225.324 -126.789)" fill="none" stroke="#000" stroke-linecap="square" stroke-miterlimit="2" stroke-width="0.074"/>
  <path id="Path_102" data-name="Path 102" d="M310.571,183.763a7.729,7.729,0,0,0,1.549-3.052c-.159-.122-.159-.28-.32-.4-.3.127-.317,1.109-.433,1.626l-.8,1.823m-1.451-6.309s1.831,1.336,2.7,2.16a1.4,1.4,0,0,0,1.748-.927,2.942,2.942,0,0,0-1.349-1.647c-.3-.132-.671-.384-1.014-.518.651.566,2.038,1.243,1.737,2.455-.608.579-.932.359-1.279.052l-2.54-1.576m.951-.146,2.232,1.022c.012-.005.466,0,0-.149-1.784-.792-3.293-2.857-5.395-1.984-.715.4-1.027,1.472-1.345,2.106l.441-.531s.534-.907.875-1.018a2.791,2.791,0,0,1,2.32.1l.872.458m1.578-1.525c-.08.126.165.415.047.47a3.805,3.805,0,0,1-1.773,0c.269-.076,1.21-.83,1.727-.47m-4.257-2.8c-1.121.786-1.221,1.653-1.66,2.882-.12-1.467.341-3.062,1.66-2.882m2.518,6.329a10,10,0,0,0-3.647-1.965l.2-.29a8.494,8.494,0,0,1,2.6,1.426l.849.829m2.363-4.21.13.369c.818-.893.416-1.9-.6-2.912l.363.99a3.242,3.242,0,0,1,.11,1.553" transform="translate(-226.116 -127.624)"/>
  <path id="Path_103" data-name="Path 103" d="M334.459,182.357c.834-.12.878,1.333,1.91,1.252a2.177,2.177,0,0,0,2-1.353,2.936,2.936,0,0,0,1.829-.152l.1-.122a2.924,2.924,0,0,1-1.894-.11,10.343,10.343,0,0,0-2.333-.856c-.7-.048-.988.427-1.31,1.134Z" transform="translate(-247.59 -134.071)" stroke="#000" stroke-linecap="square" stroke-miterlimit="2" stroke-width="0.074"/>
  <path id="Path_104" data-name="Path 104" d="M338.256,183.639c-.038.437-.165.879.407,1.1.72.146.817-.3.978-.8a.977.977,0,0,1,.6.2,1.536,1.536,0,0,1-.806,1.068,1.354,1.354,0,0,1-.931-.012,1.588,1.588,0,0,1-.895-1.216c-.08-.24.4-.424.645-.349" transform="translate(-250.05 -136.024)" fill="#fff"/>
  <path id="Path_105" data-name="Path 105" d="M207.629,225.974c.47-.092.859-.575,1.331-.693.2.236-.794.454-.6.693h-.734m3.84,0c.472-.159,1.1-.973,1.656-.973.319.242-.5.617-.379.973h-1.277m5.792,0c.4-.2.9-1.01,1.417-.889.474.158.012.514-.187.889h-1.23m5.554,0-.358-.546c-.04-.2-.447-.5-.288-.625.437.281.437.625,1.225,1.171h-.579m-9.016-7.28a2.2,2.2,0,0,1-1.506.674,1.143,1.143,0,0,1-.873-.277v-.2a2.238,2.238,0,0,0,1.823,0c.2-.078.318-.277.556-.2m3.73-.316c-.873,1.5-1.419,1.253-2.431.4-.2-.08,1.041.349,1.338.227l1.093-.623m2.179,5.356c-.594.12-1.071.992-1.7.4a1.3,1.3,0,0,1-.6-1.229,1.71,1.71,0,0,0,1.824.2c.593-.915,1.627-1.23,1.627-2.379.275,1.068-.518,2.182-1.153,3.013m-5.037.476c-.435-.117-1.03.277-1.547,0-.515-.356-.434-.99-.634-1.507a1.934,1.934,0,0,0,1.9.754,10.817,10.817,0,0,0,2.063-2.383,9.9,9.9,0,0,1-1.787,3.135m-4.561,0c-.358-.317-.714.238-1.071-.078a3.758,3.758,0,0,1-.2-2.1c.279.472.079,1.226.792,1.427,1.073.119,1.151-1.193,1.985-1.51-.118.917-1.109,1.47-1.506,2.262m-36.1,3.452a52.576,52.576,0,0,0,4.283-13.053c-1.033,4.524-1.744,9.164-4.283,13.053" transform="translate(-127.534 -158.666)"/>
  <path id="Path_106" data-name="Path 106" d="M282.109,294.532c-.359-.359-.161-1.072.2-1.434l-.2,1.434" transform="translate(-208.882 -217.129)" fill="#94693c"/>
  <path id="Path_107" data-name="Path 107" d="M164.974,243.87c-.363,4.344-.665,8.7-.78,13.1a70.97,70.97,0,0,0,1.55-13.1h-.77m4.4,0c-.012.514-.019,1.034-.027,1.557-.316,1.228-1.307,2.182-1.824,3.33-1.664,3.57-.95,8.214-4.641,10.869.358.518.676-.117,1.031-.195,2.7-1.51,2.263-4.844,3.611-7.141.159,3.568.039,7.417.477,10.748,1.111-3.967.358-8.567.318-12.732a12.916,12.916,0,0,1,2.061-3.931c.032-.839.058-1.672.086-2.505h-1.091m4.69,0c-.16,2.88-.367,5.735-.709,8.5-1.467,1.664-1.865,3.8-2.182,5.909-1.43,3.333-1.112,7.656-4.96,9.718l-.119.279c1.668-.077,3.054-2.024,3.81-3.331.753-2.063,1.465-4.125,2.22-6.19a89.6,89.6,0,0,1-.674,12.3c1.669-4.52,1.627-10,1.43-15.035a4.247,4.247,0,0,1,1.626-2.976s.179-4.3.38-9.173h-.822m4.863,0c-.161,5.064-.527,10.155-1.01,15.081-2.538,3.931-3.611,8.45-4.561,13.056-.4,1.822-2.221,3.131-3.809,3.886H168.4l.2.478c1.826.154,3.213-.835,4.563-1.907-.238-1.509,1.148-2.381,1.429-3.689.635-1.828.832-3.85,1.822-5.556-.4,3.691-.713,7.5-1.267,10.952,1.07-1.866,1.07-4.245,1.548-6.348.358-2.858.832-5.594,1.032-8.49l1.348-1.348s.365-8.927.663-16.116h-.805m3.842,0c-.255,7.034-.7,14.34-1.121,21.35-3.254,3.374-2.223,8.489-4.6,12.22a4.728,4.728,0,0,1-1.583,2.483l2.281-1.28a92.335,92.335,0,0,0,3.587-10.923l1.623-1.905c.314-7.629.629-14.786.727-21.944h-.912m4.55,0a35.781,35.781,0,0,0-.081,7.741l.378-.037a63.554,63.554,0,0,0,.519-7.7h-.817m1.935,0c-.138,1.951-.4,3.913-.585,5.839,0,0,.279.147.313.014a24.851,24.851,0,0,0,.665-5.853h-.394m1.93,0c-.069,2.5-.406,5.567-1.178,6.973l1.241.3a50.525,50.525,0,0,0,.626-7.267h-.689m2.143,0c-.125,1.88-.4,3.764-.452,5.562a18.3,18.3,0,0,0,.934-5.562h-.482m2.05,0a.468.468,0,0,1,.032.069c-.292,1.083-.449,4.057-.731,5.23l1.55,1.393c0-.949,4.062-.5,4.062-.5a30.716,30.716,0,0,1-4.815-6.187h-.1m.1,0a26.919,26.919,0,0,1-3.56-12.665c-.073-2.891.107-5.188.107-5.188l-.853,2.273c-1.031.634-1.9.116-2.857-.278-.515-.714-1.349-1.468-.873-2.461a7.481,7.481,0,0,1,1.031-1.15c-.915.316-2.1,1.585-3.213.553-.472-1.149-1.507-2.179-.95-3.608.316-.433.435-.993.95-1.351-.515-.117-1.149.316-1.623-.158a5.428,5.428,0,0,1-.478-3.648c.437-.475.675-.952,1.229-1.231-.634-.278-1.51-.87-1.43-1.784a7.75,7.75,0,0,1,2.1-5.237l-.077-.117c-1.669,1.507-3.772,2.7-6.033,1.9-.755-.319-.832-1.151-1.031-1.787-1.068,1.787-3.21,2.224-5.237,2.379-1.109-.078-1.745-1.351-2.775-1.623a7.455,7.455,0,0,0,2.22,2.38A32.647,32.647,0,0,1,168.32,222.7c-.913,1.108-2.5.951-3.81,1.228.476.676,1.588.516,2.065,1.229-.422,6.265-1.078,12.477-1.6,18.717h.77c.166-3.143.312-6.277.671-9.274l.477-9.443,1.9-1.031,1.708,1.787c-.622,6-1.01,11.8-1.126,17.961h1.09c.181-5.72.281-11.366.59-17.289.476-.356,1.351-.121,1.827-.2a8.16,8.16,0,0,0,1.982,3.255c-.4,4.561-.529,9.425-.8,14.231h.822c.266-6.383.572-13.758.572-13.758.119-.24.358-.2.553-.2.6,1.585.875,3.965,2.937,4.283.093,3.182.075,6.423-.021,9.673h.8l.367-8.917c.556.909,1.271,2.377,2.581,2.3h.274c-.036,2.163-.1,4.377-.185,6.615h.912c.024-1.886.039-3.77.029-5.664,1.073.556,1.943,1.9,3.452,1.5l.2.281a28.221,28.221,0,0,1-.041,3.879h.817c.038-1.278.085-2.528.175-3.682a2.126,2.126,0,0,1,1.031.873c.013.929-.025,1.868-.089,2.809h.393c.026-.887.046-1.748.093-2.528l1.428.275c.032.631.039,1.411.015,2.253h.689c.019-.612.032-1.228.05-1.858l1.429-1.071a21.293,21.293,0,0,1-.025,2.928h.483c.06-1.064.1-2.1.165-3,0,0,1.193,2.554,1.4,3h.1" transform="translate(-119.787 -150.982)"/>
  <path id="Path_108" data-name="Path 108" d="M276.364,393.451c-.553-.122-1.071-.2-1.626-.319,2.181-8.292,2.54-17.454,4.88-25.589.832-.713.6-2.277,4.046-2.695.22.513-2.162.417-2.616,1.628,2.339-1.51,3.647-.954,5.036.117,4.245,3.212,1.507,9.361,1.626,13.806l-.316.671-.278,9.326c-.514.952-.2,2.263-.277,3.41-1.031-.316-2.26-1.544-3.531-.674h-.358Zm4.568-32.551-.719,4.909a21.548,21.548,0,0,1,2.034-1.092,5.566,5.566,0,0,1,1.362-.121s-1.041-1.267-1.411-1.76S280.932,360.9,280.932,360.9Z" transform="translate(-203.097 -265.709)" fill="#94693c" stroke="#000" stroke-width="0.074"/>
  <path id="Path_109" data-name="Path 109" d="M234.824,263.925c-.639.758-1.034,1.67-1.907,2.182.476-1.7,2.063-3.371,2.777-5.233,2.538-5.715,3.65-12.061,4.167-18.645a41.606,41.606,0,0,1-5.037,21.7m6.938-58.355a5.392,5.392,0,0,0,.873,4.206c-2.461-2.1-1.349-5.235-.952-7.936.476-1.9,1.784-3.965.873-5.99,2.063,3.135-.752,6.39-.794,9.72" transform="translate(-172.286 -142.409)"/>
  <path id="Path_110" data-name="Path 110" d="M199.284,216.571c-.832,4.84-3.253,9.007-6.189,12.973a2.156,2.156,0,0,1-2.181.278,3.883,3.883,0,0,1-1.309-1.231,55.131,55.131,0,0,0,3.49-11.619c1.867.195,3.332-1.034,4.76-2.027a7.009,7.009,0,0,0,1.429,1.626m4.125,4.206a6.194,6.194,0,0,0-.951,4.482c-1.9,2.779-3.333,6.031-6.188,8.175-.995.472-1.785-.518-2.1-1.232-1.272-2.657,2.06-4.325,2.655-6.664a38.367,38.367,0,0,0,3.256-8.768,4.473,4.473,0,0,0,3.329-1.233c-.437,1.551-1.742,3.93,0,5.24" transform="translate(-140.161 -158.747)" fill="#94693c"/>
  <path id="Path_111" data-name="Path 111" d="M202.671,228.7c-.4-.321,0-.915.119-1.349a15.256,15.256,0,0,0,1.148-3.611l.08.279-1.348,4.681m1.746,8.49c-.714.516-1.15,1.623-2.219,1.228-.2-.794.872-.635,1.268-1.07a61.043,61.043,0,0,0,5.4-10.473,88.659,88.659,0,0,1-4.445,10.315m7.419-7.061,1.507-.955c-.159.714-.912.833-1.507.955M201.165,232.9c-.715.834-.834,2.38-2.1,2.859a25.2,25.2,0,0,0,3.057-6.507c.275,1.427-.834,2.181-.953,3.649" transform="translate(-147.138 -165.363)"/>
  <path id="Path_112" data-name="Path 112" d="M227.4,266.235c.316.6,1.506.6,1.151,1.432-1.59,2.26-2.738,4.955-5.079,6.664-1.193.476-2.065-.874-2.738-1.625a5.213,5.213,0,0,1-.6-2.066c2.816-2.42,4.047-5.672,5.912-8.569,1.743.714.2,2.935,1.348,4.164" transform="translate(-162.891 -193.782)" fill="#94693c"/>
  <path id="Path_113" data-name="Path 113" d="M260.477,267.213l1.5-1.98a4.118,4.118,0,0,1-1.5,1.98m3.886,3.134.6-1.31-.122.834-.474.476" transform="translate(-192.867 -196.368)"/>
  <path id="Path_114" data-name="Path 114" d="M244.889,288.931h.275v.478l-4.284,6.664a1.54,1.54,0,0,1-1.586.277c-.833-.593-1.908-1.387-1.908-2.46,2.542-1.863,3.376-4.8,4.922-7.261.475.954,1.19,2.421,2.58,2.3" transform="translate(-175.673 -212.037)" fill="#94693c"/>
  <path id="Path_115" data-name="Path 115" d="M227.36,292.866h-.832c-.2-.6.754-.357,1.033-.753a25.513,25.513,0,0,0,2.774-3.806,13.588,13.588,0,0,1-2.975,4.559" transform="translate(-167.728 -213.471)"/>
  <path id="Path_116" data-name="Path 116" d="M259.91,299.911c-.237,1.348,1.708,1.907,1.073,3.333-1.43,1.7-1.945,3.967-3.531,5.711-1.112.874-2.064-.4-2.977-.872a2.707,2.707,0,0,1-.473-1.028c2.1-2.146,3.133-4.684,4.4-7.144.436.4.994,0,1.507,0" transform="translate(-187.99 -221.882)" fill="#94693c"/>
  <path id="Path_117" data-name="Path 117" d="M244.857,308.431a1.741,1.741,0,0,1-1.149.475,17.408,17.408,0,0,0,3.531-4.681l-2.382,4.206" transform="translate(-180.479 -225.253)"/>
  <path id="Path_118" data-name="Path 118" d="M275.506,318.147a3.149,3.149,0,0,1-1.463,1.813.841.841,0,0,0-.831.279c-.08.158.076.277.2.356a3,3,0,0,0,1.707-.635c.158-.277.463-.617.624-.891a12.254,12.254,0,0,0,.473,1.592,3.416,3.416,0,0,1-.9.531c-1.15.912-2.459,0-3.452-.6l-.278-.275,3.229-5.947a23.193,23.193,0,0,0,.693,3.774" transform="translate(-201.087 -232.668)" fill="#94693c"/>
  <path id="Path_119" data-name="Path 119" d="M244.029,220.8c1.706-.672,2.34-2.58,3.252-4.009-.871,1.429-.992,4.089-3.252,4.009m-4.643-29.793c.361-.675.437-1.467,1.112-2.023.157.794-.515,1.428-1.112,2.023m3.213,3.808c-.039-.712.753-.911,1.15-1.629-.039.477-.831,1.112-1.15,1.629m40.11,17.929a27.723,27.723,0,0,1-7.972,19.932l4.718,1.673.394-1.266c.112.2.276.2.47.3.457.243.344.163.873.211l1.793-.138a1.944,1.944,0,0,0,1.309-1.347l.6.2.275.2c.557.08,1.469.319,1.826-.2l.753,1.23.477,2.1c2.536,6.587,2.775,14.562,9.32,19.042l.557.277,1.149.479,3.059,4.48a10.664,10.664,0,0,0,3.052,2.381c.446.066,1.094,1.371,1.423,1l.483-1.272-.875-4.563a17.787,17.787,0,0,0,2.059.44l1-.834-.477.12c-.991-.481-2.261-.638-3.133-1.549-3.891-4.209-3.176-10.314-7.14-14.48-1.509-8.176-2.024-16.784-3.256-25.113,1.27-1.189.836-3.53,2.858-4.008,1.31,7.183,1.31,14.916,2.181,22.3a4.56,4.56,0,0,1,2.1,1.588c.437,5.992,1.153,11.86,3.454,17.058-.278-2.024-.992-4.087-1.271-6.189l-.754-7.341c.991,3.058,1.515,6.84,3.61,8.233,2.271,1.509,3.332.339,3.332.339-.355-.478-.672-.161-1.108-.36-6.508-2.416-3.217-10.788-8.214-14.678l-1.784-19.241-.4-2.735a14.4,14.4,0,0,0,1.23-4.284l2.023-.6.161,1.229,1.067,20.667.955.678c.6,4.8.6,9.957,2.461,14.2-1.189-4.005-1.23-8.846-1.43-13.25,2.739,2.025,2.064,5.6,3.61,8.173l.424-.126c-1.487-3.544-.746-8.044-4.786-10.347q-.716-11.129-1.429-22.258a6.208,6.208,0,0,1,.673-1.348c.514,1.23,2.064,1.468,3.213,1.429,1.23,10,1.27,20.471,3.652,29.99-1.309-9.914-2.065-20.308-3.057-30.466a3.522,3.522,0,0,0,1.627-1.229c-.157-.359.276-.558,0-.873-.992.873-2.26,1.625-3.531,1.15l-1.071-1.15a126.2,126.2,0,0,1-5.516-11.7,2.71,2.71,0,0,0,2.1-.278,6.538,6.538,0,0,0,1.707-2.3c-1.072.87-2.816,1.662-4.287,1.07l-.2-.2c-1.824,1.393-4.321,2.661-6.746,1.71-.435,1.145-.794,2.655-2.179,3.053l-1.07.077c.276.676.99,1.39,1.351,2.1.236,1.15.433,2.777-.2,3.811-.394,1.108-2.539.472-1.7,2.1.12,1.151.237,2.5-.474,3.414-1.032,1.107-2.343,2.062-3.612,1.9a11.251,11.251,0,0,1-1.7,3.056s.052,1.256-.007,2.336m2.061-14.994c1.35-4.281-3.449-7.895-.951-12.176-1.388,4.322,3.492,7.895.951,12.176m9.918-9.6-.08.08c-.316-.2-.633-.715-.476-1.034a1.454,1.454,0,0,1,.556.954" transform="translate(-173.934 -134.437)"/>
  <path id="Path_120" data-name="Path 120" d="M470.449,205.813c1.782,3.849,3.25,7.855,5.232,11.624a3.341,3.341,0,0,1-.949,2.3,2.549,2.549,0,0,1-2.181.472,58.622,58.622,0,0,1-7.458-12.017C467.193,208.429,468.941,207.242,470.449,205.813Z" transform="translate(-344.011 -152.123)" fill="#94693c" stroke="#000" stroke-width="0.074"/>
  <path id="Path_121" data-name="Path 121" d="M445.946,210.028a5.46,5.46,0,0,1-2.26-1.032l.193-.4c.917-.12,1.593.874,2.067,1.429m16.983,8.094a78.992,78.992,0,0,1-3.536-9.324c1.391,3.014,2.3,6.228,3.536,9.324m-5.358,2.857c-1.114-.317-1.55-1.787-2.183-2.779-1.272-2.46-2.859-4.8-3.411-7.617,1.229,3.73,3.965,6.824,5.594,10.4" transform="translate(-327.641 -154.235)"/>
  <path id="Path_122" data-name="Path 122" d="M463.392,229.806a5.236,5.236,0,0,1-.756,3.89,2.268,2.268,0,0,1-2.3,1.071,42.813,42.813,0,0,1-5.794-8.57c-.2-.754.474-1.387.556-2.1a8.886,8.886,0,0,0-.635-4.006,5.909,5.909,0,0,0,1.589-2.66C458.551,221.433,460.061,226.036,463.392,229.806Z" transform="translate(-336.243 -160.618)" fill="#94693c" stroke="#000" stroke-width="0.074"/>
  <path id="Path_123" data-name="Path 123" d="M430.992,234.6a2.613,2.613,0,0,1,.477,1.073,8.4,8.4,0,0,1-2.383-2.024c.8-.12,1.312.515,1.906.951m9.046,10.952c-.358.551-.913-.241-1.154-.559-1.98-3.45-4.163-6.783-5.311-10.59,2.179,3.727,3.926,7.619,6.465,11.149m-11.9-4.286a6.806,6.806,0,0,1-2.381-3.135c1.389.355,2.1,1.906,2.381,3.135" transform="translate(-314.701 -172.765)"/>
  <path id="Path_124" data-name="Path 124" d="M444.2,255.6a43.1,43.1,0,0,0,6.108,9.441c.321,1.272-.476,2.1-1.15,2.935a3.136,3.136,0,0,1-2.46.676c-1.986-2.144-3.214-4.6-4.681-6.944,1.468-1.664,1.509-3.966,1.827-6.107h.357" transform="translate(-327.073 -188.976)" fill="#94693c"/>
  <path id="Path_125" data-name="Path 125" d="M453.464,280.321c.4.475,1.471.117,1.31,1.029-.554.317-1.028-.12-1.5-.278a40.3,40.3,0,0,1-3.61-6.385c1.15,1.944,2.457,3.688,3.8,5.634" transform="translate(-332.909 -203.311)"/>
  <path id="Path_126" data-name="Path 126" d="M430.178,281.488a32.044,32.044,0,0,0,4.839,7.737,3.062,3.062,0,0,1-1.707,2.66,1.71,1.71,0,0,1-2.179-1.15c-.833-3.019-4.879-5.479-2.66-8.968.556-.078,1.114-.16,1.707-.279" transform="translate(-316.624 -208.21)" fill="#94693c"/>
  <path id="Path_127" data-name="Path 127" d="M436.78,296.827c.316.634,1.621.553,1.11,1.509a1.8,1.8,0,0,1-1.786-1.15l-2.382-6.072,3.058,5.713" transform="translate(-321.155 -215.452)"/>
  <path id="Path_128" data-name="Path 128" d="M422.274,303.476c-.557,1.351-2.024,1.748-3.332,1.9-.774-.054-2.065-.348-2.246-.78a39.016,39.016,0,0,0,.787-4.534c1.031,1.309.983,4.087,3.084,4.209.319-.123.16-.44.2-.678-1.706-.753-2.31-3.1-3.224-4.6.124-.766.1-1.517.155-2.3a1.9,1.9,0,0,1,.89-.432l3.688,7.22" transform="translate(-308.481 -219.186)" fill="#94693c"/>
  <path id="Path_129" data-name="Path 129" d="M437.2,331.755c.835-.633.955-2.817,2.384-1.428l1.148-.2.4,1.03c.715,8.369,2.3,16.5,3.69,24.478,2.5,2.22,2.974,5.395,4.286,8.169-3.65-2.337-5.674-6.425-7.021-10.27-1.271-3.059-1.983-6.309-3.139-9.406C438.943,344.133,437.479,335.723,437.2,331.755Z" transform="translate(-323.304 -242.805)" fill="#94693c" stroke="#000" stroke-width="0.074"/>
  <path id="Path_130" data-name="Path 130" d="M421.349,338.228a47.2,47.2,0,0,0,1.627,7.892c.277-1.19-.436-2.221-.478-3.453a29.541,29.541,0,0,0-.672-4.164,1.45,1.45,0,0,1,1.071-.274c.518,3.331,1.193,6.622,1.984,9.875-.316-.713-1.191-.158-1.708-.476-3.568-1.827-1.744-6.386-3.053-9.4l.118-.479,1.111.478" transform="translate(-311.06 -249.831)" fill="#94693c"/>
  <path id="Path_131" data-name="Path 131" d="M472.442,360.875l-.732-4.523c-2.263-2.5-3.293-5.557-4.285-8.568-.316,2.654.516,5.194.873,7.614h-.119c-1.505-3.372-1.709-7.258-2.1-11.069-.637-1.067-1.271-2.456-2.541-3.014-.79-8.49-2.3-16.661-3.053-25.154H458.46l-.833,2.66a241.422,241.422,0,0,0,3.885,25.429c3.771,4.76,3.1,11.547,8.569,15.433Z" transform="translate(-338.227 -232.044)" fill="#94693c" stroke="#000" stroke-width="0.074"/>
  <path id="Path_132" data-name="Path 132" d="M399.378,346.43a1.144,1.144,0,0,0,.467.449,4.422,4.422,0,0,0,1.616.31,1.936,1.936,0,0,0,1.309-1.347c-1.507-2.58-1.14-6.624-1.654-9.64-.134.043-.327-.287-.461-.134a13.179,13.179,0,0,0-.643,1.91c.358,2.1,1.052,4.451.655,6.711-.635-1.944-.091-4.313-.882-6.139-.538,1.217-.813,1.761-1.35,2.765l.806,4.725a1.182,1.182,0,0,0,.137.391m-1.565-4.074.676,3.309a1.919,1.919,0,0,0-1.2-.863,7.175,7.175,0,0,0-1.215-.076l1.741-2.37" transform="translate(-293.158 -248.52)" fill="#94693c"/>
  <path id="Path_133" data-name="Path 133" d="M382.254,403.4a34.7,34.7,0,0,1-3.612,1.225l-.273-5.512-.32-.318-.635-7.13v-.288l-.316-.355c.792-4.878-2.46-9.958.6-14.205a4.655,4.655,0,0,1,3.886-.948,7.348,7.348,0,0,1,2.185,1.5,2.775,2.775,0,0,0-.757-1.307c-.754-.995-2.023-1.031-3.051-1.23a3.094,3.094,0,0,1,2.377,0,6.633,6.633,0,0,1,2.58,2.538c.869,2.9.992,6.03,1.707,8.968,1.029,5.753,2.536,11.306,3.648,17.058-.955-.117-1.746.2-2.7.077Z" transform="translate(-278.208 -275.979)" fill="#94693c" stroke="#000" stroke-width="0.074"/>
  <path id="Path_134" data-name="Path 134" d="M315.421,432.018c-5.513-3.689-4.4-10.315-6.268-15.63-.278-1.428-.556-2.9-.952-4.283.238,4.56,1.665,8.847,2.459,13.248.713,1.11.6,2.617.872,3.89a6.857,6.857,0,0,1-1.43,2.7Zm-27.3.078-1.625-4.084a26.726,26.726,0,0,0,.476-5.594c-.729,3.421-1.892,7.584-5.436,10Z" transform="translate(-207.231 -304.256)" stroke="#000" stroke-width="0.074"/>
  <path id="Path_135" data-name="Path 135" d="M303.705,390.7v.081a6.75,6.75,0,0,1-3.058-1.311,7.582,7.582,0,0,1-4,.636v-.158a17.945,17.945,0,0,0,4-1.748,31.647,31.647,0,0,0,3.058,2.5m-3.529,3.809.553.078a46.683,46.683,0,0,1,3.055,6.19c-2.22-1.348-2.379-4.166-3.608-6.071l-1.628,9.323c.4-4.839,1.467-9.362,2.022-14.082a24.892,24.892,0,0,1-.395,4.562" transform="translate(-219.548 -286.857)"/>
  <path id="Path_136" data-name="Path 136" d="M400.069,398.153c1.864,4.284,3.095,9,4.918,13.053a72.808,72.808,0,0,1-5.117-13.053Z" transform="translate(-296.049 -294.367)" stroke="#000" stroke-linecap="square" stroke-miterlimit="2" stroke-width="0.074"/>
  <path id="Path_137" data-name="Path 137" d="M290.981,402.044c-1.7,4.523-2.022,9.637-5.633,13.409l-.161-.2L289,407.279l1.983-6.31v1.074m.4,10.075c.951,2.778,2.1,5.437,3.133,8.17a13.269,13.269,0,0,1-3.332-8.17h.2m19.875,2.382a7.59,7.59,0,0,1-1.707,3.135l1.9-5.117c.361.394.16,1.426-.2,1.982" transform="translate(-210.279 -296.093)"/>
  <path id="Path_138" data-name="Path 138" d="M316.783,299.235s.371,9.865-5.575,17.155c-6.52,7.994-10.73,9.47-10.73,9.47s-4.21-1.476-10.732-9.47c-5.932-7.274-5.579-17.155-5.579-17.155Z" transform="translate(-209.226 -220.628)" fill="#fff"/>
  <path id="Path_139" data-name="Path 139" d="M305.125,325.135v-26.02H302.35v24.054S303.6,324.161,305.125,325.135ZM294.5,314.719v-15.6h-2.565v10.449A25.311,25.311,0,0,0,294.5,314.719Zm5.131,6v-21.6H297.06v18.847S298.158,319.219,299.63,320.716Zm8.025,4.419v-26.02h2.775v24.054S309.185,324.161,307.655,325.135Zm10.623-10.416v-15.6h2.567v10.449A25.221,25.221,0,0,1,318.278,314.719Zm-5.129,6v-21.6h2.567v18.847S314.622,319.219,313.149,320.716Z" transform="translate(-215.135 -220.569)" fill="#b11e39"/>
  <path id="Path_140" data-name="Path 140" d="M315.994,262.154a37.508,37.508,0,0,1,.759,8.835c0-.025-32.658-.025-32.658,0a63.086,63.086,0,0,1,.756-8.835Z" transform="translate(-209.173 -193.965)" fill="#76bae4"/>
  <path id="Path_141" data-name="Path 141" d="M58.087,435.393l2.353,3.333-.69,2.028Z" transform="translate(-44.201 -322.335)" stroke="#000" stroke-linejoin="round" stroke-width="0.074"/>
  <path id="Path_142" data-name="Path 142" d="M57.921,435.393l-.049,4.08,1.714,1.282Z" transform="translate(-44.038 -322.335)" fill="#fff" stroke="#000" stroke-linejoin="round" stroke-width="0.074"/>
  <path id="Path_143" data-name="Path 143" d="M41.568,453.666l3.9-1.206,1.714,1.282Z" transform="translate(-31.631 -335.194)" stroke="#000" stroke-linejoin="round" stroke-width="0.074"/>
  <path id="Path_144" data-name="Path 144" d="M41.568,457.51l3.864,1.312,1.748-1.237Z" transform="translate(-31.631 -338.933)" fill="#fff" stroke="#000" stroke-linejoin="round" stroke-width="0.074"/>
  <path id="Path_145" data-name="Path 145" d="M57.5,463.139l.056-4.079,1.748-1.237Z" transform="translate(-43.753 -338.943)" stroke="#000" stroke-linejoin="round" stroke-width="0.074"/>
  <path id="Path_146" data-name="Path 146" d="M57.5,463.139l2.442-3.266-.639-2.05Z" transform="translate(-43.753 -338.943)" fill="#fff" stroke="#000" stroke-linejoin="round" stroke-width="0.074"/>
  <path id="Path_147" data-name="Path 147" d="M69.541,461.182l-3.859-1.309-.638-2.05Z" transform="translate(-49.495 -339.053)" stroke="#000" stroke-linejoin="round" stroke-width="0.074"/>
  <path id="Path_148" data-name="Path 148" d="M69.541,461.182l-2.352-3.329-2.146-.029Z" transform="translate(-49.495 -339.053)" fill="#fff" stroke="#000" stroke-linejoin="round" stroke-width="0.074"/>
  <path id="Path_149" data-name="Path 149" d="M69.632,444.28l-2.442,3.267-2.146-.029Z" transform="translate(-49.495 -329.028)" stroke="#000" stroke-linejoin="round" stroke-width="0.074"/>
  <path id="Path_150" data-name="Path 150" d="M69.632,444.28l-3.9,1.209-.69,2.028Z" transform="translate(-49.495 -329.03)" fill="#fff" stroke="#000" stroke-linejoin="round" stroke-width="0.074"/>
  <path id="Path_151" data-name="Path 151" d="M658.274,426.917l.2,4.072-1.673,1.343Z" transform="translate(-485.451 -316.057)" stroke="#000" stroke-linejoin="round" stroke-width="0.074"/>
  <path id="Path_152" data-name="Path 152" d="M655.849,426.917l-2.232,3.412.762,2Z" transform="translate(-483.027 -316.057)" fill="#fff" stroke="#000" stroke-linejoin="round" stroke-width="0.074"/>
  <path id="Path_153" data-name="Path 153" d="M637.171,436.7l3.935,1.072.758,2Z" transform="translate(-470.512 -323.428)" stroke="#000" stroke-linejoin="round" stroke-width="0.074"/>
  <path id="Path_154" data-name="Path 154" d="M637.171,436.7l2.552,3.182,2.141-.107Z" transform="translate(-470.512 -323.423)" fill="#fff" stroke="#000" stroke-linejoin="round" stroke-width="0.074"/>
  <path id="Path_155" data-name="Path 155" d="M638.489,453.086l2.237-3.41,2.141-.107Z" transform="translate(-471.515 -332.932)" stroke="#000" stroke-linejoin="round" stroke-width="0.074"/>
  <path id="Path_156" data-name="Path 156" d="M638.489,453.086l3.814-1.447.564-2.069Z" transform="translate(-471.515 -332.932)" fill="#fff" stroke="#000" stroke-linejoin="round" stroke-width="0.074"/>
  <path id="Path_157" data-name="Path 157" d="M657,454.818l-2.552-3.179.564-2.069Z" transform="translate(-483.656 -332.837)" stroke="#000" stroke-linejoin="round" stroke-width="0.074"/>
  <path id="Path_158" data-name="Path 158" d="M658.792,454.819l-.2-4.073L656.8,449.57Z" transform="translate(-485.451 -332.837)" fill="#fff" stroke="#000" stroke-linejoin="round" stroke-width="0.074"/>
  <path id="Path_159" data-name="Path 159" d="M662.409,448.45l-3.813,1.443-1.793-1.176Z" transform="translate(-485.451 -332.214)" stroke="#000" stroke-linejoin="round" stroke-width="0.074"/>
  <path id="Path_160" data-name="Path 160" d="M662.409,445.027l-3.933-1.075L656.8,445.3Z" transform="translate(-485.451 -328.887)" fill="#fff" stroke="#000" stroke-linejoin="round" stroke-width="0.074"/>
  <path id="Path_161" data-name="Path 161" d="M380.782,428.158v-.008a8.042,8.042,0,0,0,2.738-5.514l-.08-.08c-.6,1.9-1.9,3.49-2.658,5.314Z" transform="translate(-282.027 -312.819)" stroke="#000" stroke-width="0.074"/>
  <path id="Path_162" data-name="Path 162" d="M382.01,391.951h-.08l-.116-1.509.116-.04.08,1.271v.279m2.975-3.612a5.067,5.067,0,0,1-3.171-.476,6.973,6.973,0,0,1-3.016,1.23c.633-.834,1.981-1.389,2.855-2.378a5.662,5.662,0,0,0,3.332,1.624" transform="translate(-280.396 -286.304)"/>
  <path id="Path_163" data-name="Path 163" d="M300.753,497.715s.819-3.224,3.2-3.224,2.167.53,2.682.972c.465.4.941,1.027.763,1.387a2.136,2.136,0,0,1-.2.221,9.177,9.177,0,0,1-1.32.706,16.4,16.4,0,0,1-2.6.284,5.9,5.9,0,0,1-1.985-.418A2.709,2.709,0,0,0,300.753,497.715Z" transform="translate(-222.607 -366.195)" fill="#e0af35" stroke="#000" stroke-width="0.074"/>
  <path id="Path_164" data-name="Path 164" d="M304.086,500.022a.784.784,0,0,1,.1-1.066c.079-.088.4-.125.561-.461a2.168,2.168,0,0,1,1.917-.8,8.427,8.427,0,0,1,2.6,1.51s.375.649-.027.373c-.323-.221-.544-.543-1.042-.448s-1.362.745-1.958.573-1.141-.7-1.39-.623-.764.945-.764.945" transform="translate(-224.999 -368.635)"/>
  <path id="Path_165" data-name="Path 165" d="M323.413,504.032a3.734,3.734,0,0,1,1.316,1.264,3.428,3.428,0,0,1-.028,2.755c-.279.656-2.008,1.487-2.008,1.487a7.652,7.652,0,0,0,.8-2.529,2.208,2.208,0,0,0-.816-1.314,4.971,4.971,0,0,0-.871-.622,3.96,3.96,0,0,1,1.092-.743A.855.855,0,0,0,323.413,504.032Z" transform="translate(-238.324 -373.141)" fill="#e0af35" stroke="#000" stroke-width="0.074"/>
  <path id="Path_166" data-name="Path 166" d="M325.765,505.379l.3-.1a4.071,4.071,0,0,1,1.214,1.541,2.352,2.352,0,0,1-.1,1.857,3.813,3.813,0,0,1-.668,1.015,8.967,8.967,0,0,0,.621-1.659,2.065,2.065,0,0,0-.6-1.763q-.381-.447-.765-.891" transform="translate(-241.32 -374.133)"/>
  <path id="Path_167" data-name="Path 167" d="M287.2,507.465a10.429,10.429,0,0,0-.172,2.278,2.7,2.7,0,0,0,1.684,2.384,5.327,5.327,0,0,0,1.562.1c-.322-.3-1.289-1.019-1.363-1.76s.246-1.02.322-1.515a1.691,1.691,0,0,1,.271-.743,11.009,11.009,0,0,0-1.064-.522A6.722,6.722,0,0,0,287.2,507.465Z" transform="translate(-212.559 -375.729)" fill="#e0af35" stroke="#000" stroke-width="0.074"/>
  <path id="Path_168" data-name="Path 168" d="M290.856,508.2a3.881,3.881,0,0,0-.372,1.387,3.751,3.751,0,0,0,.3,1.908c.19.385,1.167.917,1.167.917a2.483,2.483,0,0,1-.87-1.465,5.522,5.522,0,0,1,.273-2.5l-.495-.244" transform="translate(-215.191 -376.306)"/>
  <path id="Path_169" data-name="Path 169" d="M266.71,486.106a26.988,26.988,0,0,1-3.15-.025,3.012,3.012,0,0,0-1.063-.2c-.446.026-2.481.472-2.929,1.313a6.224,6.224,0,0,0-.716,1.489c.022.151.843.251,1.114.348s1.294.246,1.511.3a4.786,4.786,0,0,0,2.307-.027,4.408,4.408,0,0,0,1.736-.592,2.243,2.243,0,0,0,.545-.693C266.164,487.742,266.71,486.106,266.71,486.106Zm3.769.122a19.079,19.079,0,0,0-1.888-3.344,25.026,25.026,0,0,0-1.533,2.229,20.972,20.972,0,0,0-1.366,2.657c.027.246-.2.743-.123.841s.2.125.793.224a2.3,2.3,0,0,1,1.14.467,1.653,1.653,0,0,0,.966.228c.175-.027.4-.647.4-.647a9.645,9.645,0,0,1,.672-1.534A13.08,13.08,0,0,1,270.479,486.228Z" transform="translate(-191.426 -357.416)" fill="#e0af35" stroke="#000" stroke-width="0.074"/>
  <path id="Path_170" data-name="Path 170" d="M295.606,500.184a2.859,2.859,0,0,0-.773-.646,3.559,3.559,0,0,0-.966-.173s-.494.2-.519.4-.024.423.077.495a2.077,2.077,0,0,0,.816.35c.5.124,1.041.319,1.041.319l.324-.741" transform="translate(-217.276 -369.926)"/>
  <path id="Path_171" data-name="Path 171" d="M259.4,507.675a6.135,6.135,0,0,0,.124,2.65,3.027,3.027,0,0,0,1.512,1.961,7.642,7.642,0,0,0,2.479.047,2.852,2.852,0,0,1-1.885-1.414,3.5,3.5,0,0,1-.222-1.91,3.253,3.253,0,0,1,.222-.816s-1.019-.209-1.216-.247C260.168,507.9,259.4,507.675,259.4,507.675Z" transform="translate(-192.014 -375.886)" fill="#e0af35" stroke="#000" stroke-width="0.074"/>
  <path id="Path_172" data-name="Path 172" d="M262.865,503.044a13.7,13.7,0,0,0-.025,1.588,2.51,2.51,0,0,0,.52,1.14,6.573,6.573,0,0,1-.2-1.19c0-.419.076-1.484.076-1.484l-.373-.054m6-1.734s-1.439-.073-2.159-.027a2.633,2.633,0,0,0-1.237.325,7.648,7.648,0,0,1-1.142.272l-1.241,1.191.818.147c.895-.147.321-.671,1.912-.77a9.563,9.563,0,0,0,2.974-.841l.075-.3" transform="translate(-194.554 -371.157)"/>
  <path id="Path_173" data-name="Path 173" d="M384.266,494.488s-.5.031-1.417.141-2.622.035-3.069.48-1.76,1.042-2.207,1.958-.52,1.44-.349,1.587.226.1.724.174,1.072.288,1.734.4a2.889,2.889,0,0,0,2.2-.719,11.6,11.6,0,0,1,2.258-.722c.42-.073.247-1.214.247-1.214l-.127-2.085Zm-4.758,4.739a4.329,4.329,0,0,0,.322,1.907,1.45,1.45,0,0,0,1.19.9,4.321,4.321,0,0,0,1.077.1,2.005,2.005,0,0,1-1.572.692,4.958,4.958,0,0,1-2.381-1.684,5.078,5.078,0,0,1-.52-2.332s.9.121,1.168.2Z" transform="translate(-279.118 -365.898)" fill="#e0af35" stroke="#000" stroke-width="0.074"/>
  <path id="Path_174" data-name="Path 174" d="M388.316,499.158c0,.1-.5.547-.5.547l-1.563.472-1.166.521-1.09.742s-.595.622-.644.723a2.112,2.112,0,0,0-.1.367l.819.225a.58.58,0,0,1,.232-.438c.2-.164.414-.344.559-.455a4.32,4.32,0,0,1,1.192-.621,6.177,6.177,0,0,0,1.213-.619c.123-.1.419.027.746-.2s.3-1.265.3-1.265m-5.058,3.372a6.115,6.115,0,0,0,.074,1.563,2.7,2.7,0,0,0,.6.844,6.87,6.87,0,0,1-.322-1.29,7.311,7.311,0,0,1,.1-.989l-.443-.127" transform="translate(-283.738 -369.516)"/>
  <path id="Path_175" data-name="Path 175" d="M419.8,494.146a18.055,18.055,0,0,0,1.815-.182,5.02,5.02,0,0,1,2.383.2,6.05,6.05,0,0,1,2.4,1.339c.252.325.568,1.561,0,1.833s-1.266.669-1.734.5-1.985-.25-2.677-.372a4.635,4.635,0,0,0-1.193-.074Zm6.75,3.116a5.374,5.374,0,0,1,.247,1.462,4.376,4.376,0,0,1-.422,1.96c-.271.635-1.611,1.166-1.611,1.166a7.84,7.84,0,0,0,.745-1.464,3.74,3.74,0,0,0-.1-1.786,2.65,2.65,0,0,0-.371-.743,2.906,2.906,0,0,0,.547-.149C425.833,497.607,426.552,497.262,426.552,497.262Z" transform="translate(-310.706 -365.485)" fill="#e0af35" stroke="#000" stroke-width="0.074"/>
  <path id="Path_176" data-name="Path 176" d="M445.033,509.143s.2.149.349.842a6.247,6.247,0,0,1,.072,1.386,4.3,4.3,0,0,0,.2-1.408,2.628,2.628,0,0,0-.344-.945l-.273.125" transform="translate(-329.726 -377.028)"/>
  <path id="Path_177" data-name="Path 177" d="M404.025,488.269a2.646,2.646,0,0,0-1.785.941,2.276,2.276,0,0,0-.177,1.961,6.571,6.571,0,0,0,1.169,2.081,2.857,2.857,0,0,0,2.181.869c.816-.053,2.032-.129,2.056-.768a7.566,7.566,0,0,0-.395-2.085,5.253,5.253,0,0,0-.867-1.813C405.539,488.615,405.214,488.245,404.025,488.269Z" transform="translate(-297.551 -361.449)" fill="#e0af35" stroke="#000" stroke-width="0.074"/>
  <path id="Path_178" data-name="Path 178" d="M412.805,499.281a2.621,2.621,0,0,1,.125.444c0,.1.02.424.02.424s-.766.571-1.136.519a2.5,2.5,0,0,1-1.515-.547,4.434,4.434,0,0,1-.744-1.064,8.214,8.214,0,0,0,2.208.6,5.107,5.107,0,0,0,1.041-.373" transform="translate(-303.306 -369.694)"/>
  <path id="Path_179" data-name="Path 179" d="M411.56,511.775a2.549,2.549,0,0,1,.569,1.168,2.76,2.76,0,0,1-.27,1.465c-.224.366-.743,1.262-.743,1.262a1.8,1.8,0,0,0,1.09-.273,3.256,3.256,0,0,0,1.493-1.684,7.244,7.244,0,0,0,.092-1.982,6.45,6.45,0,0,1-1.585.266A1.641,1.641,0,0,1,411.56,511.775Z" transform="translate(-304.495 -378.939)" fill="#e0af35" stroke="#000" stroke-width="0.074"/>
  <path id="Path_180" data-name="Path 180" d="M416.465,501.556s-.028.941-.074,1.24a5.282,5.282,0,0,1-.3.869,4.173,4.173,0,0,0,.594-1.19,4.218,4.218,0,0,0,0-1.016l-.222.1m6.5-3.634c.437.476.911,1.07.557,1.745-.041.117-.157.08-.279.08-.437-.518-.2-1.549-1.15-1.628-1.19-.673-2.978.317-4.087-.555a11.123,11.123,0,0,1,4.284,0l.676.358" transform="translate(-307.932 -368.149)"/>
  <path id="Path_181" data-name="Path 181" d="M199.238,529.768H197.65v-2.084h14.829v2.084h-1.587V532h1.587v3.125h-6.744V532h1.189v-2.229h-3.717V532h1.187v3.125H197.65V532h1.588Z" transform="translate(-146.08 -390.523)" fill="#b2b2b2" stroke="#000" stroke-width="0.074"/>
  <path id="Path_182" data-name="Path 182" d="M211.933,527.684v1.736h-1.588V532m1.588,0v2.78h-6.2m1.189-5.009v-.349h-4.266V532m1.192,0v2.78h-6.2m1.588-5.009v-.349H197.7" transform="translate(-146.095 -390.546)" fill="none" stroke="#000" stroke-width="0.074"/>
  <path id="Path_183" data-name="Path 183" d="M117.312,85.2l-1.405-3.564.435-.053-1.08-3.459.483.052L114.4,75.257l.54.106-.594-2.863h.322l-.536-2.157.536-.056-.863-2.754.542,2.537-.648-.107.7,2.213-.541-.106.808,2.972-.7-.055,1.3,2.864s-.864-.379-.649-.055,1.35,3.567,1.35,3.567l-.648.052,1.512,3.784h.486M43.581,149.121c.157.3.309.6.487.884s.4.543.6.807l-3.2,2.064a17.787,17.787,0,0,0-2.077,1.453,2.433,2.433,0,0,0-.907,1.433,2.12,2.12,0,0,0,.345,1.6,2.236,2.236,0,0,0,2.652,1.123,10.4,10.4,0,0,0,2.461-1.3l3.41-2.2a3.507,3.507,0,0,0,.257.473,3.383,3.383,0,0,0,.324.427l-4,2.59c-1.307.793-2.47,1.562-4.036.914a4.335,4.335,0,0,1-1.968-1.743c-.88-1.359-1.4-3.113-.211-4.474a6.253,6.253,0,0,1,1.269-1.073l4.592-2.969m5.382,8.149.858,1.013c-.363,2.793-.637,5.632-1.064,8.466l4.792-4.039a3.571,3.571,0,0,0,.314.436,4.29,4.29,0,0,0,.376.385l-7.028,5.923-.727-.883c.324-2.3.65-4.471.894-6.656l.228-2.1-4.956,4.176c-.1-.144-.2-.3-.316-.435s-.253-.257-.375-.385l7-5.9m6.593,7.49c.218.259.425.521.664.759s.5.442.76.66L50.5,172.695c-.218-.251-.428-.515-.667-.751s-.5-.445-.759-.661l6.477-6.522m-.477,12.079c-.235-.24-.462-.489-.718-.707s-.53-.409-.8-.609l5.379-6.236a18.343,18.343,0,0,0-2.007-1.486,4.051,4.051,0,0,0,.425-.391,4.245,4.245,0,0,0,.316-.471l5.222,4.5a4.474,4.474,0,0,0-.417.386,3.817,3.817,0,0,0-.327.48,20.557,20.557,0,0,0-1.691-1.71l-5.381,6.239m12.62-1.932a4.389,4.389,0,0,0-.395.426,4.642,4.642,0,0,0-.281.506,19.38,19.38,0,0,0-2.4-1.969L62.935,176.2l1.129.819a11.46,11.46,0,0,0,1.4.867,4.823,4.823,0,0,0-.389.429,4.209,4.209,0,0,0-.284.506,12.31,12.31,0,0,0-1.262-1.064l-1.131-.819-2,2.754a24.274,24.274,0,0,0,2.615,1.667,4.206,4.206,0,0,0-.393.427,4.508,4.508,0,0,0-.283.5L58.21,179.3l5.356-7.388,4.133,3m4.906,2.985a3.956,3.956,0,0,1,1.352,5.745,4.606,4.606,0,0,1-6.636,1.74L64.077,183.5l4.563-7.9,3.965,2.293Zm-6.4,5.942.982.568c1.6.924,3.283.827,4.852-1.885,1.255-2.181.72-3.636-.914-4.58l-1.135-.659-3.785,6.555m26.511,8.583c-.538.933-1.026,1.682-1.449,2.543-.208-.056-.4-.116-.614-.16s-.422-.054-.637-.081l5.522-8.388a3.9,3.9,0,0,0,.494.132,2.9,2.9,0,0,0,.506.059l1.9,9.852c-.374-.1-.735-.208-1.119-.281s-.755-.108-1.143-.154c-.114-1.034-.218-1.982-.4-2.929l-3.062-.591Zm2.913-.274-.576-3.291-1.829,2.829,2.4.462m8.088,4.724c-.33-.061-.658-.13-.993-.163s-.672-.021-1.007-.023l.763-8.209a17.9,17.9,0,0,0-2.5-.04,3.72,3.72,0,0,0,.12-.572,3.9,3.9,0,0,0-.014-.563l6.868.637a2.52,2.52,0,0,0-.1,1.138,20.152,20.152,0,0,0-2.372-.413l-.762,8.209M146.679,186.3c.149,1.065.223,1.958.417,2.9-.2.085-.39.149-.58.248s-.373.213-.553.326l-.776-10.015a3.354,3.354,0,0,0,.907-.461l7.541,6.619c-.358.153-.711.287-1.058.459s-.665.386-1,.582c-.725-.746-1.387-1.431-2.117-2.068Zm2.141-2-2.474-2.246.287,3.357,2.187-1.11m7.934-11.419a3.525,3.525,0,0,0,.5-.258,4.449,4.449,0,0,0,.439-.377c2.366,2.75,4.259,4.993,6.13,6.946-.324.188-.649.358-.958.571s-.565.43-.86.664c-1.282-1.706-2.654-3.256-3.977-4.847.309,2.269.624,4.529,1,6.783a1.319,1.319,0,0,0-.421.28c-1.747-1.047-3.789-2.171-5.811-3.34a56.3,56.3,0,0,0,2.953,5.359,5.431,5.431,0,0,0-.561.3,5.494,5.494,0,0,0-.473.4c-1.11-2.5-2.5-5.312-4.022-8.374a3.456,3.456,0,0,0,.492-.253,4.515,4.515,0,0,0,.426-.369c1.982,1.2,4.028,2.335,6.084,3.482-.268-2.115-.506-4.5-.949-6.966m6.431-5.336a4.392,4.392,0,0,0,.325.479,4.469,4.469,0,0,0,.426.4,18.513,18.513,0,0,0-2.473,1.87l1.873,2.188,1.06-.908a11.847,11.847,0,0,0,1.169-1.165,4.319,4.319,0,0,0,.324.484,4.674,4.674,0,0,0,.429.39,11.748,11.748,0,0,0-1.33.982l-1.058.909,2.213,2.585a25.115,25.115,0,0,0,2.229-2.161,4.19,4.19,0,0,0,.321.483,5.621,5.621,0,0,0,.427.394l-3.875,3.321-5.936-6.933,3.876-3.316m.788-.718,1.991-2.044a5.416,5.416,0,0,1,1.707-1.365,1.994,1.994,0,0,1,2.185.5,2.387,2.387,0,0,1,.268,3.179c1.431.372,2.9.64,4.348.933l.962.209c-.3.27-.612.527-.9.827s-.534.6-.794.908l-3.13-.825c-.4-.113-1.1-.271-1.672-.416l-.064.068,3.077,3c-.254.221-.514.432-.75.674s-.437.505-.65.763l-6.576-6.417Zm4.491,1.575a1.7,1.7,0,0,0,.1-2.844,3.468,3.468,0,0,0-.53-.42c-.941-.624-1.568.17-2.14.753l2.571,2.51m.925-7.333c.24-.236.483-.467.7-.723s.4-.542.589-.815l7.039,5.907c-.236.242-.479.471-.7.728s-.4.54-.591.813l-7.04-5.91m12.9-4.395.771.908a5.9,5.9,0,0,1-1.07,2.5c-1.663,2.339-4.363,3.078-6.6,1.485-2.85-2.026-2.751-4.915-1.058-7.293a6.1,6.1,0,0,1,2.12-1.847c.3.361.625.693.945,1.05l-.108.151a2.8,2.8,0,0,0-2.3,1.1c-1.287,1.81-.074,3.777,1.53,4.918,1.866,1.329,3.829,1.344,5.026-.335a3.761,3.761,0,0,0,.572-2.535l.164-.1m.586-3.427c.72.8,1.279,1.5,1.964,2.171-.116.178-.238.341-.341.529s-.186.385-.28.581l-6.229-7.878a3.475,3.475,0,0,0,.281-.424,3.532,3.532,0,0,0,.212-.465l9.95,1.286c-.211.328-.431.635-.621.974s-.338.684-.506,1.041c-1.011-.219-1.946-.417-2.908-.54l-1.523,2.725Zm.665-2.855-3.311-.483,2.108,2.625,1.2-2.142M24,123.211l-.143-1.877c2.729-2.919,5.39-5.968,8.234-8.878l-8.868.688a5.3,5.3,0,0,0,0-.764,4.811,4.811,0,0,0-.117-.754l13-1.008.107,1.612c-2.273,2.388-4.445,4.618-6.537,6.935l-2,2.233,9.174-.711c0,.249-.019.515,0,.761s.079.512.117.758l-12.968,1m8.44-17.294c1.391.631,2.518,1.219,3.789,1.7-.051.3-.114.581-.144.884s-.021.608-.032.914l-12.589-6.677a4.582,4.582,0,0,0,.125-.712,4.154,4.154,0,0,0,.014-.725l13.658-4.013c-.09.547-.195,1.07-.249,1.618s-.047,1.086-.062,1.638c-1.443.3-2.769.575-4.085.964Zm-.77-4.086-4.571,1.26,4.237,2.2.334-3.463m7.242-10.8c-.155.454-.324.9-.438,1.359s-.178.936-.255,1.408L26.873,90.957a26.219,26.219,0,0,0-.6,3.5,5.633,5.633,0,0,0-.769-.291,5.99,5.99,0,0,0-.8-.1l2.373-9.5a5.892,5.892,0,0,0,.752.286,5.787,5.787,0,0,0,.816.1,29.123,29.123,0,0,0-1.085,3.237l11.345,2.835m-10.725-9.4c.2-.436.42-.858.584-1.3s.276-.914.4-1.373l12.235,4.519c-.2.435-.419.86-.586,1.307s-.274.909-.4,1.371L28.182,81.624m17.2-6.138c-2,3.7-5.523,5.01-9.319,2.956-3.327-1.8-4.706-5.686-2.45-9.851,2.581-4.766,6.7-4.351,9.3-2.964C46.18,67.373,47.6,71.385,45.38,75.486Zm-7.33.441c2.172,1.176,5.013,1.438,6.372-1.072,1.4-2.573-.557-5.121-3.329-6.626-2.16-1.168-5.179-1.5-6.536,1-1.258,2.325-.252,4.665,3.493,6.695m1.608-16.649,1.2-1.45c3.991-.2,8.024-.539,12.093-.654L46.095,51.5a4.971,4.971,0,0,0,.532-.55,5.311,5.311,0,0,0,.441-.622l10.046,8.322-1.046,1.232c-3.3.132-6.407.226-9.518.438l-2.992.213,7.088,5.87a7.18,7.18,0,0,0-.526.553,7.259,7.259,0,0,0-.443.618L39.658,59.278m18.075-6.544c.561,1.418.959,2.624,1.536,3.858-.245.184-.484.341-.716.534s-.44.426-.66.637L53.5,44.2a4.3,4.3,0,0,0,.586-.422,4.546,4.546,0,0,0,.513-.513l12.6,6.627c-.443.327-.887.63-1.3.986s-.788.747-1.184,1.131c-1.245-.785-2.386-1.513-3.6-2.151Zm2.289-3.475-4.161-2.276,1.51,4.532,2.65-2.255m9.918-2.7a40.643,40.643,0,0,0,3.539-2.551,5.85,5.85,0,0,0,.357.744,5.7,5.7,0,0,0,.514.637l-6.088,3.852L61.345,38.3c.419-.223.853-.428,1.256-.685s.772-.553,1.155-.842l6.183,9.788m12.2-16.139a2.264,2.264,0,0,0-2.638-.739c-1.4.548-1.663,1.488-1.265,2.5.94,2.391,6.144-.168,7.739,3.888.891,2.265-.419,4.659-3.161,5.737a5.736,5.736,0,0,1-3.147.356,17.673,17.673,0,0,0-.372-2.449l.337-.13a2.564,2.564,0,0,0,3.208.986,2,2,0,0,0,1.344-2.653c-1.11-2.834-5.982.269-7.655-4-.8-2.034-.064-4.268,2.626-5.325a4.949,4.949,0,0,1,3.128-.251c.013.653.064,1.307.125,1.976l-.268.106m10.6-5.578a6.1,6.1,0,0,0,.111.813,6.066,6.066,0,0,0,.295.77,27.111,27.111,0,0,0-4.32.836l1.023,3.959,1.911-.492a17.422,17.422,0,0,0,2.222-.748,5.84,5.84,0,0,0,.113.819,5.323,5.323,0,0,0,.3.764,17.08,17.08,0,0,0-2.306.42l-1.915.491,1.2,4.678A34.445,34.445,0,0,0,95.566,35.8a5.942,5.942,0,0,0,.112.818,5.657,5.657,0,0,0,.3.765L88.96,39.193,85.735,26.652l7.011-1.807m14.986,8.93-.237,1.672a8.31,8.31,0,0,1-3.652,1.222c-4.043.446-7.378-1.711-7.806-5.583-.545-4.934,2.61-7.559,6.73-8.014a8.6,8.6,0,0,1,3.956.5c-.1.663-.141,1.314-.221,1.993l-.262.032a3.961,3.961,0,0,0-3.327-1.394c-3.138.346-4.073,3.493-3.768,6.27.356,3.23,2.2,5.323,5.1,5a5.342,5.342,0,0,0,3.227-1.79l.256.086m3.009-10.891c.473.069.944.157,1.418.185s.953,0,1.43,0l-.345,5.392a24.866,24.866,0,0,0-.1,3.6,3.435,3.435,0,0,0,.868,2.246,3.011,3.011,0,0,0,2.108.951,3.171,3.171,0,0,0,3.524-2.077,15.009,15.009,0,0,0,.594-3.908l.367-5.751a4.848,4.848,0,0,0,.758.1,5.259,5.259,0,0,0,.76-.008l-.431,6.757c-.194,2.163-.3,4.136-2.362,5.376a6.153,6.153,0,0,1-3.649.779c-2.3-.146-4.736-1.028-5.282-3.541a9.031,9.031,0,0,1-.153-2.353l.492-7.745m16,1.527,3.942.932a7.54,7.54,0,0,1,2.906,1.084,2.84,2.84,0,0,1,.986,3.027A3.4,3.4,0,0,1,130.9,32.1c.6,2.018,1.346,3.989,2.048,5.971l.447,1.32c-.546-.168-1.087-.354-1.66-.489-.555-.136-1.125-.21-1.686-.3l-1.282-4.406c-.162-.563-.477-1.539-.719-2.337l-.129-.032-1.407,5.941c-.451-.151-.9-.313-1.363-.422s-.935-.165-1.41-.236l3-12.7Zm1.366,6.616c1.9.646,3.078-.05,3.529-1.958a4.582,4.582,0,0,0,.126-.945c.067-1.608-1.354-1.789-2.482-2.054l-1.173,4.957M139.259,27.8c.433.2.857.414,1.3.573s.915.272,1.373.4l-4.442,12.261c-.437-.2-.864-.411-1.311-.575s-.915-.27-1.372-.4L139.259,27.8m5.622,16.553c-.408-.245-.808-.5-1.237-.717s-.876-.366-1.323-.539l5.155-10.5a25.907,25.907,0,0,0-3.29-1.318,5.871,5.871,0,0,0,.448-.7,5.555,5.555,0,0,0,.264-.755l8.787,4.317a5.364,5.364,0,0,0-.438.675,5.333,5.333,0,0,0-.275.773,29.71,29.71,0,0,0-2.933-1.737l-5.16,10.5m9.74-.664c.2-2.828.611-5.658.873-8.539.45.352.891.72,1.36,1.044s.974.592,1.469.883c-.165,1.153-.381,2.478-.571,3.706a20.145,20.145,0,0,0-.3,2.561A41.2,41.2,0,0,0,163,40.275a7.44,7.44,0,0,0,1.523,1.035c-2.5,1.241-4.974,2.34-7.337,3.678l-3.311,4.856c-.369-.3-.731-.616-1.12-.882s-.818-.488-1.231-.728l3.094-4.542M166.11,54.92c-1.392.626-2.577,1.084-3.782,1.713-.2-.237-.361-.47-.57-.694s-.441-.417-.663-.629l13.34-5.009a4.218,4.218,0,0,0,.45.562,4.71,4.71,0,0,0,.536.491l-6.038,12.9c-.351-.43-.67-.858-1.047-1.259s-.781-.755-1.183-1.132c.729-1.282,1.4-2.455,1.982-3.7Zm3.571,2.13,2.084-4.258L167.308,54.5l2.374,2.547m7.394,17.79a19.252,19.252,0,0,1-3.481-3.79c-2.186-3.365-2.442-7.463,1.305-9.9,3.972-2.577,7.88-.988,10.27,2.7a8.975,8.975,0,0,1,1.52,4.476,6.774,6.774,0,0,0-1.9.6l-.144-.222a4.437,4.437,0,0,0-.412-4.2c-1.73-2.665-4.984-2.409-7.664-.67-2.777,1.8-3.521,4.28-1.944,6.7A4.005,4.005,0,0,0,176.212,72l3.724-2.424c.229.419.438.849.7,1.248s.565.77.855,1.147l-4.415,2.867M192.3,78.509a5.977,5.977,0,0,0-.786.245,5.724,5.724,0,0,0-.709.424,26.386,26.386,0,0,0-1.55-4.119l-3.731,1.665.808,1.807a17.257,17.257,0,0,0,1.111,2.065,5.993,5.993,0,0,0-.786.251,5.415,5.415,0,0,0-.7.42,17.312,17.312,0,0,0-.8-2.207l-.807-1.8-4.406,1.97a34.707,34.707,0,0,0,2.039,3.9,7.188,7.188,0,0,0-.788.248,6.838,6.838,0,0,0-.7.421l-2.959-6.616L189.34,71.9l2.96,6.614m1.429,3.583.488,1.818c-2.138,3.375-4.192,6.865-6.441,10.254l8.585-2.324a5.314,5.314,0,0,0,.145.748,5.225,5.225,0,0,0,.254.722l-12.589,3.4-.4-1.563c1.792-2.771,3.513-5.363,5.133-8.031l1.555-2.565-8.885,2.4c-.045-.242-.076-.511-.143-.749s-.171-.487-.253-.72l12.555-3.394m-6.115,27.1-1.668-.27a8.361,8.361,0,0,1-1.143-3.678c-.361-4.051,1.868-7.345,5.75-7.69,4.942-.435,7.5,2.773,7.865,6.9a8.608,8.608,0,0,1-.586,3.947c-.66-.114-1.314-.171-1.99-.263l-.024-.263a3.985,3.985,0,0,0,1.463-3.3c-.276-3.143-3.4-4.144-6.185-3.9-3.238.286-5.368,2.077-5.11,4.992a5.345,5.345,0,0,0,1.722,3.268l-.093.254m3.027,5.281c2.54-1.264,5.182-2.352,7.8-3.594-.076.569-.171,1.135-.2,1.7s-.02,1.142-.02,1.714c-1.076.447-2.326.934-3.48,1.393a19.07,19.07,0,0,0-2.354,1.05,40.856,40.856,0,0,0,5.469,3.214,7.187,7.187,0,0,0-.116.927,7.286,7.286,0,0,0-.007.914c-2.338-1.523-4.539-3.1-6.893-4.452l-5.863-.377c.069-.472.158-.945.192-1.421s0-.951-.006-1.426l5.482.357m-77.928,73.609a4.424,4.424,0,0,0-.069.577,4.74,4.74,0,0,0,.07.575,19.385,19.385,0,0,0-3.1-.184l0,2.882,1.393,0a11.308,11.308,0,0,0,1.643-.122,4.981,4.981,0,0,0-.062.577,4.19,4.19,0,0,0,.067.577,11.982,11.982,0,0,0-1.647-.119l-1.4,0,0,3.4a24.139,24.139,0,0,0,3.094-.189,4.06,4.06,0,0,0-.067.577,4.356,4.356,0,0,0,.066.574l-5.1.008-.009-9.126,5.1-.008m-25.894,5.7c-.312-.126-.62-.257-.941-.356s-.654-.155-.982-.224l2.38-7.894a18.143,18.143,0,0,0-2.441-.536,3.848,3.848,0,0,0,.232-.536,3.893,3.893,0,0,0,.1-.554l6.6,1.991a3.817,3.817,0,0,0-.225.52,3.747,3.747,0,0,0-.1.575,19.987,19.987,0,0,0-2.242-.877l-2.379,7.893m42.783,1.751c-2.924.634-5.269-.657-5.923-3.662-.57-2.635.887-5.183,4.183-5.9,3.771-.818,5.46,1.6,5.919,3.648C134.357,192.2,132.848,194.834,129.6,195.538Zm-3.639-3.755c.373,1.72,1.55,3.375,3.535,2.945,2.039-.441,2.507-2.679,2.034-4.876-.373-1.708-1.595-3.5-3.577-3.065-1.838.4-2.636,2.03-1.992,5m-7.725-2.06a1.628,1.628,0,0,0-1.616-1.12c-1.078.044-1.479.62-1.445,1.4.076,1.841,4.21,1.325,4.341,4.454.075,1.745-1.374,3.064-3.489,3.152a4.12,4.12,0,0,1-2.22-.494,12.8,12.8,0,0,0,.322-1.751l.259-.009a1.843,1.843,0,0,0,1.947,1.421,1.441,1.441,0,0,0,1.535-1.488c-.089-2.184-4.123-1.22-4.26-4.508a2.836,2.836,0,0,1,3.031-3,3.556,3.556,0,0,1,2.181.561c-.144.447-.262.9-.376,1.372l-.21.009m-34.909-4.876a1.633,1.633,0,0,0-.993-1.7,1.273,1.273,0,0,0-1.9.658c-.708,1.7,3.257,2.979,2.055,5.871-.67,1.613-2.539,2.2-4.492,1.384a4.136,4.136,0,0,1-1.8-1.387,12.76,12.76,0,0,0,1.031-1.45l.238.1a1.842,1.842,0,0,0,1.165,2.111,1.439,1.439,0,0,0,2.018-.7c.841-2.018-3.222-2.847-1.958-5.886a2.835,2.835,0,0,1,4.013-1.438,3.547,3.547,0,0,1,1.739,1.429c-.318.343-.618.709-.92,1.085l-.191-.08m53.319,2.87,3.141-1.119.418.919-3.222,1.147,1.488,4.18-1.691.6-3.084-8.662,4.912-1.751.418.919-3.3,1.177.922,2.586Z" transform="translate(-17.577 -17.414)"/>
</svg>
